<svg xmlns="http://www.w3.org/2000/svg" width="28" height="27" viewBox="0 0 28 27" fill="none">
    <mask id="half">
      <rect x="0" y="0" width="28" height="27" fill="white" />
      <rect x="50%" y="0" width="28" height="27" fill="black" />
    </mask>
  <g clip-path="url(#clip0_25_36)" mask='url(#half)'>
    <path d="M15.352 1.35519L18.51 7.32759C18.7296 7.74297 19.1542 8.0308 19.6454 8.09731L26.7074 9.05509C27.9444 9.22299 28.4379 10.6414 27.5432 11.4553L22.4332 16.1041C22.0781 16.4274 21.9157 16.8935 21.9998 17.3497L23.2059 23.9141C23.4173 25.0638 22.1242 25.9404 21.018 25.398L14.7019 22.2989C14.2627 22.0836 13.7376 22.0836 13.2984 22.2989L6.98237 25.398C5.87615 25.9409 4.58303 25.0638 4.79447 23.9141L6.00056 17.3497C6.08466 16.8935 5.92229 16.4274 5.56718 16.1041L0.45721 11.4553C-0.437575 10.6409 0.0559583 9.22245 1.293 9.05509L8.35492 8.09731C8.84611 8.0308 9.27073 7.74297 9.49034 7.32759L12.6484 1.35519C13.2009 0.309094 14.7989 0.309094 15.352 1.35519Z" fill="#ED8A19"/>
  </g>
  <defs>
    <clipPath id="clip0_25_36">
      <rect width="28" height="26.1333" fill="white"/>
    </clipPath>
  </defs>
</svg>